# xmcd
#
# Track frame offsets: 
#        150
#        17436
#        33477
#        47644
#        61839
#        77212
#        91742
#        105853
#        118802
#        134766
#        149715
#        166867
#        180866
#
# Disc length: 2524 seconds
#
# Revision: 0
# Processed by: cddbd v1.5.2PL0 Copyright (c) Steve Scherf et al.
# Submitted via: ExactAudioCopy v1.1
#
DISCID=a209da0d
DTITLE=Jinx Jones - Twang-Tastic!
DYEAR=2016
DGENRE=Rock and Roll
TTITLE0=Metalflake Sky
TTITLE1=Nothing Left to Burn
TTITLE2=Ruin My Bad Reputation
TTITLE3=Wham-Bam Boogie
TTITLE4=Flying Home
TTITLE5=Midnight Train
TTITLE6=Better Off Gone
TTITLE7=Beat Crazy Baby
TTITLE8=Love Don't Live Here No More
TTITLE9=Jinx's Guitar Boogie
TTITLE10=High and Dry
TTITLE11=Too Many Chicks
TTITLE12=Theme From Thunderball
EXTD=
EXTT0=
EXTT1=
EXTT2=
EXTT3=
EXTT4=
EXTT5=
EXTT6=
EXTT7=
EXTT8=
EXTT9=
EXTT10=
EXTT11=
EXTT12=
PLAYORDER=
